<svg width="28" height="28" viewBox="0 0 28 28" fill="none" xmlns="http://www.w3.org/2000/svg">
<path d="M14 27.0308C21.2487 27.0308 27.125 21.1545 27.125 13.9058C27.125 6.65702 21.2487 0.780762 14 0.780762C6.75126 0.780762 0.875 6.65702 0.875 13.9058C0.875 21.1545 6.75126 27.0308 14 27.0308Z" fill="white"/>
<path d="M14 0C6.28075 0 0 6.28075 0 14C0 21.7192 6.28075 28 14 28C21.7192 28 28 21.7192 28 14C28 6.28075 21.7192 0 14 0ZM26.2447 14.105C23.2802 13.3228 20.2405 13.2317 17.3443 13.8285C16.9488 12.8415 16.5217 11.8703 16.0632 10.9113C18.683 9.68625 21.105 8.0255 23.2295 5.97275C25.1038 8.1235 26.25 10.927 26.25 14C26.25 14.035 26.2447 14.0683 26.2447 14.105ZM21.9923 4.73725C20.0078 6.6535 17.7502 8.2145 15.3037 9.3555C13.9965 6.853 12.467 4.4625 10.7363 2.205C11.7775 1.91625 12.8677 1.75 14 1.75C17.0538 1.75 19.845 2.8805 21.9923 4.73725ZM9.00725 2.8245C10.7835 5.0855 12.3427 7.4935 13.671 10.0153C9.996 11.4188 6.006 11.9577 2.01075 11.4905C2.821 7.6125 5.474 4.41 9.00725 2.8245ZM1.75 14C1.75 13.7375 1.77275 13.4803 1.79025 13.223C2.82625 13.3455 3.86225 13.426 4.89475 13.426C8.18825 13.426 11.424 12.782 14.4567 11.6008C14.8767 12.4758 15.2722 13.363 15.638 14.2625C11.3365 15.554 7.504 18.3085 4.9245 22.1988C2.95925 20.0253 1.75 17.1535 1.75 14ZM6.20375 23.4413C8.57675 19.7103 12.1957 17.08 16.268 15.89C17.374 18.935 18.1702 22.0972 18.634 25.333C17.2042 25.921 15.6397 26.25 14 26.25C11.0408 26.25 8.323 25.1948 6.20375 23.4413ZM20.2755 24.5C19.7943 21.4165 19.0312 18.3977 17.9865 15.484C20.6307 14.987 23.3975 15.1042 26.0925 15.8655C25.5272 19.5335 23.338 22.6625 20.2755 24.5Z" fill="#B7472A"/>
</svg>
