<svg width="28" height="28" viewBox="0 0 28 28" fill="none" xmlns="http://www.w3.org/2000/svg">
<path fill-rule="evenodd" clip-rule="evenodd" d="M25.972 0H2.112C0.971999 0 0 0.901871 0 2.01571V25.9843C0 27.0961 0.969999 28 2.112 28H25.972C27.114 28 28 27.0961 28 25.9843V2.01571C28.002 0.899871 27.116 0 25.972 0Z" fill="#B7472A"/>
<path fill-rule="evenodd" clip-rule="evenodd" d="M25.972 0H2.112C0.971999 0 0 0.901871 0 2.01571V25.9843C0 27.0961 0.969999 28 2.112 28H25.972C27.114 28 28 27.0961 28 25.9843V2.01571C28.002 0.899871 27.116 0 25.972 0ZM11.082 10.4985H14.874V12.4042C15.422 11.3084 16.822 10.3245 18.926 10.3245C22.96 10.3245 23.918 12.5042 23.918 16.5056V23.9166H19.832V17.4175C19.832 15.1378 19.286 13.854 17.894 13.854C15.966 13.854 15.164 15.2398 15.164 17.4175V23.9166H11.08V10.4985H11.082ZM4.082 23.9166H8.166V10.4985H4.082V23.9166ZM8.75 6.12513C8.75 6.46993 8.68208 6.81135 8.55011 7.12991C8.41814 7.44846 8.2247 7.73791 7.98086 7.98172C7.73701 8.22553 7.44753 8.41894 7.12893 8.55089C6.81033 8.68284 6.46885 8.75075 6.124 8.75075C5.77915 8.75075 5.43767 8.68284 5.11907 8.55089C4.80047 8.41894 4.51098 8.22553 4.26714 7.98172C4.02329 7.73791 3.82986 7.44846 3.69789 7.12991C3.56592 6.81135 3.498 6.46993 3.498 6.12513C3.498 5.42877 3.77466 4.76093 4.26714 4.26853C4.75961 3.77613 5.42754 3.4995 6.124 3.4995C6.82046 3.4995 7.48839 3.77613 7.98086 4.26853C8.47333 4.76093 8.75 5.42877 8.75 6.12513V6.12513Z" fill="white"/>
</svg>
