<svg width="76" height="68" viewBox="0 0 76 68" fill="none" xmlns="http://www.w3.org/2000/svg">
<path d="M36.512 55V15.8H3.92V55H13.44V43.296H26.992V55H36.512ZM13.44 24.872H26.992V34.224H13.44V24.872ZM72.6701 24.872V15.8H41.8141V24.872H52.4541V55H61.9741V24.872H72.6701Z" fill="#EB9788"/>
<path d="M37.512 54V55H38.512V54H37.512ZM37.512 14.8H38.512V13.8H37.512V14.8ZM4.92 14.8V13.8H3.92V14.8H4.92ZM4.92 54H3.92V55H4.92V54ZM14.44 54V55H15.44V54H14.44ZM14.44 42.296V41.296H13.44V42.296H14.44ZM27.992 42.296H28.992V41.296H27.992V42.296ZM27.992 54H26.992V55H27.992V54ZM14.44 23.872V22.872H13.44V23.872H14.44ZM27.992 23.872H28.992V22.872H27.992V23.872ZM27.992 33.224V34.224H28.992V33.224H27.992ZM14.44 33.224H13.44V34.224H14.44V33.224ZM38.512 54V14.8H36.512V54H38.512ZM37.512 13.8H4.92V15.8H37.512V13.8ZM3.92 14.8V54H5.92V14.8H3.92ZM4.92 55H14.44V53H4.92V55ZM15.44 54V42.296H13.44V54H15.44ZM14.44 43.296H27.992V41.296H14.44V43.296ZM26.992 42.296V54H28.992V42.296H26.992ZM27.992 55H37.512V53H27.992V55ZM14.44 24.872H27.992V22.872H14.44V24.872ZM26.992 23.872V33.224H28.992V23.872H26.992ZM27.992 32.224H14.44V34.224H27.992V32.224ZM15.44 33.224V23.872H13.44V33.224H15.44ZM73.6701 23.872V24.872H74.6701V23.872H73.6701ZM73.6701 14.8H74.6701V13.8H73.6701V14.8ZM42.8141 14.8V13.8H41.8141V14.8H42.8141ZM42.8141 23.872H41.8141V24.872H42.8141V23.872ZM53.4541 23.872H54.4541V22.872H53.4541V23.872ZM53.4541 54H52.4541V55H53.4541V54ZM62.9741 54V55H63.9741V54H62.9741ZM62.9741 23.872V22.872H61.9741V23.872H62.9741ZM74.6701 23.872V14.8H72.6701V23.872H74.6701ZM73.6701 13.8H42.8141V15.8H73.6701V13.8ZM41.8141 14.8V23.872H43.8141V14.8H41.8141ZM42.8141 24.872H53.4541V22.872H42.8141V24.872ZM52.4541 23.872V54H54.4541V23.872H52.4541ZM53.4541 55H62.9741V53H53.4541V55ZM63.9741 54V23.872H61.9741V54H63.9741ZM62.9741 24.872H73.6701V22.872H62.9741V24.872Z" fill="#EB9788"/>
</svg>
